HIERARCHY
ROOT Root
{
	OFFSET 0.00000 0.00000 0.00000
	CHANNELS 6 Xposition Yposition Zposition Zrotation Xrotation Yrotation
	JOINT Hip
	{
		OFFSET 0 0 0	
		CHANNELS 3 Zrotation Xrotation Yrotation
		JOINT Tummy
		{
			OFFSET 0 0.04 0	
			CHANNELS 3 Zrotation Xrotation Yrotation
			JOINT ChestBottom
			{
				OFFSET 0 0.194 0	
				CHANNELS 3 Zrotation Xrotation Yrotation
				JOINT ChestTop
				{
					OFFSET 0 0.166 0	
					CHANNELS 3 Zrotation Xrotation Yrotation
					JOINT LeftCollar
					{
						OFFSET 0 0.1 0	
						CHANNELS 3 Zrotation Xrotation Yrotation
						JOINT LeftUpperArm
						{
							OFFSET 0.156 -0.02 0.03	
							CHANNELS 3 Zrotation Xrotation Yrotation
							JOINT LeftForeArm
							{
								OFFSET 0.035 -0.27 -0.01	
								CHANNELS 3 Zrotation Xrotation Yrotation
								JOINT LeftHand
								{
									OFFSET 0.01 -0.27 0.01	
									CHANNELS 3 Zrotation Xrotation Yrotation
									End Site
									{
										OFFSET 0 -0.15 0
									}
								}
							}
						}
					}
					JOINT RightCollar
					{
						OFFSET 0 0.1 0	
						CHANNELS 3 Zrotation Xrotation Yrotation
						JOINT RightUpperArm
						{
							OFFSET -0.156 -0.02 0.03	
							CHANNELS 3 Zrotation Xrotation Yrotation
							JOINT RightForeArm
							{
								OFFSET -0.035 -0.27 -0.01	
								CHANNELS 3 Zrotation Xrotation Yrotation
								JOINT RightHand
								{
									OFFSET -0.01 -0.27 0.01	
									CHANNELS 3 Zrotation Xrotation Yrotation
									End Site
									{
										OFFSET 0 -0.15 0
									}
								}
							}
						}
					}
					JOINT Neck
					{
						OFFSET 0 0.1 0	
						CHANNELS 3 Zrotation Xrotation Yrotation
						JOINT Head
						{
							OFFSET 0 0.127 0.03	
							CHANNELS 3 Zrotation Xrotation Yrotation
							End Site
							{
								OFFSET 0 0.127 0.03
							}
						}
					}
				}
			}
		}
	}
	JOINT LeftHip
	{
		OFFSET 0 0 0	
		CHANNELS 3 Zrotation Xrotation Yrotation
		JOINT LeftThigh
		{
			OFFSET 0.088 -0.06 0	
			CHANNELS 3 Zrotation Xrotation Yrotation
			JOINT LeftLowerLeg
			{
				OFFSET 0 -0.39 0.02	
				CHANNELS 3 Zrotation Xrotation Yrotation
				JOINT LeftFootTop
				{
					OFFSET 0 -0.43 -0.02	
					CHANNELS 3 Zrotation Xrotation Yrotation
					JOINT LeftFootFront
					{
						OFFSET 0 -0.07 0.085	
						CHANNELS 3 Zrotation Xrotation Yrotation
						End Site
						{
							OFFSET 0 -0.005 0.09
						}
					}
				}
				JOINT LeftHeel
				{
					OFFSET 0 -0.43 -0.02	
					CHANNELS 3 Zrotation Xrotation Yrotation
					End Site
					{
						OFFSET 0 -0.075 -0.05
					}
				}
			}
		}
	}
	JOINT RightHip
	{
		OFFSET 0 0 0	
		CHANNELS 3 Zrotation Xrotation Yrotation
		JOINT RightThigh
		{
			OFFSET -0.088 -0.06 0	
			CHANNELS 3 Zrotation Xrotation Yrotation
			JOINT RightLowerLeg
			{
				OFFSET 0 -0.39 0.02	
				CHANNELS 3 Zrotation Xrotation Yrotation
				JOINT RightFootTop
				{
					OFFSET 0 -0.43 -0.02	
					CHANNELS 3 Zrotation Xrotation Yrotation
					JOINT RightFootFront
					{
						OFFSET 0 -0.07 0.085	
						CHANNELS 3 Zrotation Xrotation Yrotation
						End Site
						{
							OFFSET 0 -0.005 0.09
						}
					}
				}
				JOINT RightHeel
				{
					OFFSET 0 -0.43 -0.02	
					CHANNELS 3 Zrotation Xrotation Yrotation
					End Site
					{
						OFFSET 0 -0.075 -0.05
					}
				}
			}
		}
	}
}
MOTION
Frames: 20
Frame Time: 0.05
0 0.955 0 -0 0 -0 -0 0 -0 -0 0 -0 6.7837 20.403 -29.041 -0 0 -0 -0 0 -0 37.429 -44.591 13.888 -110.96 -39.866 -124.99 -0 0 -0 -0 0 -0 3.2439 -44.938 -1.3585 -138.04 -61.325 -147.29 -0 0 -0 0.98839 -29.204 -1.167 0.98839 -29.204 -1.167 -0 0 -0 -0 0 -0 -0 0 -0 -0 0 -0 -0 0 -0 -0 0 -0 -0 0 -0 -0 0 -0 -0 0 -0 -0 0 -0 -0 0 -0 -0 0 -0 
0 0.955 0 -0 0 -0 -0 0 -0 -0 0 -0 6.7341 20.541 -29.056 -0 0 -0 -0 0 -0 37.719 -44.595 14.406 -110.97 -39.873 -124.23 -0 0 -0 -0 0 -0 2.5483 -44.123 -2.5494 -137.36 -62.074 -149.44 -0 0 -0 0.62848 -28.785 -1.9983 0.62849 -28.785 -1.9983 -0 0 -0 -0 0 -0 -0 0 -0 -0 0 -0 -0 0 -0 -0 0 -0 -0 0 -0 -0 0 -0 -0 0 -0 -0 0 -0 -0 0 -0 -0 0 -0 
0 0.955 0 -0 0 -0 -0 0 -0 -0 0 -0 6.9705 20.526 -29.373 -0 0 -0 -0 0 -0 38.066 -44.254 15.562 -111.23 -39.58 -123.52 -0 0 -0 -0 0 -0 1.6593 -43.323 -3.6546 -136.75 -63.051 -151.82 -0 0 -0 0.15404 -28.511 -2.6574 0.15404 -28.511 -2.6574 -0 0 -0 -0 0 -0 -0 0 -0 -0 0 -0 -0 0 -0 -0 0 -0 -0 0 -0 -0 0 -0 -0 0 -0 -0 0 -0 -0 0 -0 -0 0 -0 
0 0.955 0 -0 0 -0 -0 0 -0 -0 0 -0 7.3075 20.568 -29.781 -0 0 -0 -0 0 -0 38.589 -43.5 18.414 -111.61 -37.809 -122.62 -0 0 -0 -0 0 -0 0.93097 -42.772 -4.5353 -136.13 -64.175 -153.99 -0 0 -0 -0.2673 -28.423 -3.0978 -0.26731 -28.423 -3.0978 -0 0 -0 -0 0 -0 -0 0 -0 -0 0 -0 -0 0 -0 -0 0 -0 -0 0 -0 -0 0 -0 -0 0 -0 -0 0 -0 -0 0 -0 -0 0 -0 
0 0.955 0 -0 0 -0 -0 0 -0 -0 0 -0 7.7473 20.552 -30.342 -0 0 -0 -0 0 -0 38.99 -43.193 21.621 -112.33 -36.718 -121.81 -0 0 -0 -0 0 -0 0.51129 -42.39 -4.8253 -135.9 -65.202 -155.64 -0 0 -0 -0.58247 -28.393 -3.1599 -0.58247 -28.393 -3.1599 -0 0 -0 -0 0 -0 -0 0 -0 -0 0 -0 -0 0 -0 -0 0 -0 -0 0 -0 -0 0 -0 -0 0 -0 -0 0 -0 -0 0 -0 -0 0 -0 
0 0.955 0 -0 0 -0 -0 0 -0 -0 0 -0 7.8182 20.314 -30.425 -0 0 -0 -0 0 -0 39.561 -42.8 25.048 -114.34 -37.122 -117.77 -0 0 -0 -0 0 -0 -0.028717 -41.757 -5.4713 -134.59 -66.26 -153.37 -0 0 -0 -0.78234 -28.155 -3.2106 -0.78234 -28.155 -3.2106 -0 0 -0 -0 0 -0 -0 0 -0 -0 0 -0 -0 0 -0 -0 0 -0 -0 0 -0 -0 0 -0 -0 0 -0 -0 0 -0 -0 0 -0 -0 0 -0 
0 0.955 0 -0 0 -0 -0 0 -0 -0 0 -0 7.843 20.189 -30.265 -0 0 -0 -0 0 -0 40.322 -42.665 29.16 -117.42 -38.578 -114.11 -0 0 -0 -0 0 -0 -0.82294 -40.753 -6.2814 -131.97 -67.063 -147.3 -0 0 -0 -0.82301 -27.753 -3.1854 -0.82301 -27.753 -3.1854 -0 0 -0 -0 0 -0 -0 0 -0 -0 0 -0 -0 0 -0 -0 0 -0 -0 0 -0 -0 0 -0 -0 0 -0 -0 0 -0 -0 0 -0 -0 0 -0 
0 0.955 0 -0 0 -0 -0 0 -0 -0 0 -0 7.8975 20.192 -30.069 -0 0 -0 -0 0 -0 41.315 -42.467 33.544 -120.47 -40.729 -111.06 -0 0 -0 -0 0 -0 -1.5764 -39.331 -6.8393 -129.19 -67.438 -138.99 -0 0 -0 -0.73768 -27.194 -2.916 -0.73768 -27.194 -2.916 -0 0 -0 -0 0 -0 -0 0 -0 -0 0 -0 -0 0 -0 -0 0 -0 -0 0 -0 -0 0 -0 -0 0 -0 -0 0 -0 -0 0 -0 -0 0 -0 
0 0.955 0 -0 0 -0 -0 0 -0 -0 0 -0 8.0909 20.136 -30.089 -0 0 -0 -0 0 -0 42.099 -42.221 37.008 -123.23 -43.143 -110.03 -0 0 -0 -0 0 -0 -2.3136 -37.781 -6.7234 -127.13 -67.635 -132.88 -0 0 -0 -0.60711 -26.535 -2.2624 -0.60712 -26.535 -2.2624 -0 0 -0 -0 0 -0 -0 0 -0 -0 0 -0 -0 0 -0 -0 0 -0 -0 0 -0 -0 0 -0 -0 0 -0 -0 0 -0 -0 0 -0 -0 0 -0 
0 0.955 0 -0 0 -0 -0 0 -0 -0 0 -0 8.0677 20.089 -29.852 -0 0 -0 -0 0 -0 42.267 -42.342 38.594 -125.35 -45.054 -110.46 -0 0 -0 -0 0 -0 -2.9435 -36.28 -6.4366 -126.45 -68.391 -131.91 -0 0 -0 -0.46051 -25.842 -1.5965 -0.46051 -25.842 -1.5965 -0 0 -0 -0 0 -0 -0 0 -0 -0 0 -0 -0 0 -0 -0 0 -0 -0 0 -0 -0 0 -0 -0 0 -0 -0 0 -0 -0 0 -0 -0 0 -0 
0 0.955 0 -0 0 -0 -0 0 -0 -0 0 -0 8.0697 20.23 -29.583 -0 0 -0 -0 0 -0 42.436 -42.573 38.704 -127.44 -46.195 -111.97 -0 0 -0 -0 0 -0 -3.2554 -35.381 -6.0164 -126.13 -68.779 -130.97 -0 0 -0 -0.28679 -25.283 -0.96891 -0.28679 -25.283 -0.96891 -0 0 -0 -0 0 -0 -0 0 -0 -0 0 -0 -0 0 -0 -0 0 -0 -0 0 -0 -0 0 -0 -0 0 -0 -0 0 -0 -0 0 -0 -0 0 -0 
0 0.955 0 -0 0 -0 -0 0 -0 -0 0 -0 8.1693 20.241 -29.5 -0 0 -0 -0 0 -0 42.357 -42.766 38.177 -129.08 -46.842 -114.59 -0 0 -0 -0 0 -0 -3.2482 -34.839 -5.1936 -125.99 -68.44 -129.21 -0 0 -0 -0.15841 -24.758 -0.3723 -0.15841 -24.758 -0.37229 -0 0 -0 -0 0 -0 -0 0 -0 -0 0 -0 -0 0 -0 -0 0 -0 -0 0 -0 -0 0 -0 -0 0 -0 -0 0 -0 -0 0 -0 -0 0 -0 
0 0.955 0 -0 0 -0 -0 0 -0 -0 0 -0 8.266 20.27 -29.481 -0 0 -0 -0 0 -0 42.233 -42.927 38.112 -130.04 -46.869 -117.27 -0 0 -0 -0 0 -0 -3.05 -34.628 -4.3874 -126.04 -68.402 -128.48 -0 0 -0 -0.07319 -24.427 0.063773 -0.073188 -24.427 0.063779 -0 0 -0 -0 0 -0 -0 0 -0 -0 0 -0 -0 0 -0 -0 0 -0 -0 0 -0 -0 0 -0 -0 0 -0 -0 0 -0 -0 0 -0 -0 0 -0 
0 0.955 0 -0 0 -0 -0 0 -0 -0 0 -0 8.3001 20.342 -29.493 -0 0 -0 -0 0 -0 42.383 -43.07 38.238 -130.64 -46.964 -119.19 -0 0 -0 -0 0 -0 -2.856 -34.624 -3.7614 -125.76 -68.19 -127.68 -0 0 -0 -0.024459 -24.291 0.30019 -0.02446 -24.291 0.30018 -0 0 -0 -0 0 -0 -0 0 -0 -0 0 -0 -0 0 -0 -0 0 -0 -0 0 -0 -0 0 -0 -0 0 -0 -0 0 -0 -0 0 -0 -0 0 -0 
0 0.955 0 -0 0 -0 -0 0 -0 -0 0 -0 8.2619 20.289 -29.45 -0 0 -0 -0 0 -0 42.463 -43.159 38.237 -131.07 -47.103 -120.76 -0 0 -0 -0 0 -0 -2.7707 -34.506 -3.3649 -125.11 -68.024 -127.16 -0 0 -0 -0.075361 -24.194 0.33582 -0.07536 -24.194 0.33582 -0 0 -0 -0 0 -0 -0 0 -0 -0 0 -0 -0 0 -0 -0 0 -0 -0 0 -0 -0 0 -0 -0 0 -0 -0 0 -0 -0 0 -0 -0 0 -0 
0 0.955 0 -0 0 -0 -0 0 -0 -0 0 -0 8.1692 20.235 -29.403 -0 0 -0 -0 0 -0 42.518 -43.15 38.241 -130.85 -47.041 -120.14 -0 0 -0 -0 0 -0 -2.6957 -34.411 -3.273 -124.78 -67.842 -126.89 -0 0 -0 -0.13908 -24.126 0.30558 -0.13908 -24.126 0.30558 -0 0 -0 -0 0 -0 -0 0 -0 -0 0 -0 -0 0 -0 -0 0 -0 -0 0 -0 -0 0 -0 -0 0 -0 -0 0 -0 -0 0 -0 -0 0 -0 
0 0.955 0 -0 0 -0 -0 0 -0 -0 0 -0 8.1241 20.207 -29.446 -0 0 -0 -0 0 -0 42.698 -43.141 38.327 -131.4 -47 -120.94 -0 0 -0 -0 0 -0 -2.672 -34.366 -3.2536 -124.79 -67.844 -127.04 -0 0 -0 -0.17273 -24.08 0.33002 -0.17273 -24.08 0.33003 -0 0 -0 -0 0 -0 -0 0 -0 -0 0 -0 -0 0 -0 -0 0 -0 -0 0 -0 -0 0 -0 -0 0 -0 -0 0 -0 -0 0 -0 -0 0 -0 
0 0.955 0 -0 0 -0 -0 0 -0 -0 0 -0 7.9983 20.065 -29.458 -0 0 -0 -0 0 -0 42.846 -43.016 38.686 -131.65 -46.907 -120.69 -0 0 -0 -0 0 -0 -2.7033 -34.218 -3.3814 -124.86 -67.919 -127.22 -0 0 -0 -0.18556 -24.004 0.3504 -0.18556 -24.004 0.3504 -0 0 -0 -0 0 -0 -0 0 -0 -0 0 -0 -0 0 -0 -0 0 -0 -0 0 -0 -0 0 -0 -0 0 -0 -0 0 -0 -0 0 -0 -0 0 -0 
0 0.955 0 -0 0 -0 -0 0 -0 -0 0 -0 7.969 20.03 -29.423 -0 0 -0 -0 0 -0 42.952 -43.09 39.042 -131.82 -46.925 -120.17 -0 0 -0 -0 0 -0 -2.7609 -34.173 -3.5172 -124.93 -67.949 -127.63 -0 0 -0 -0.23562 -23.998 0.31253 -0.23562 -23.998 0.31253 -0 0 -0 -0 0 -0 -0 0 -0 -0 0 -0 -0 0 -0 -0 0 -0 -0 0 -0 -0 0 -0 -0 0 -0 -0 0 -0 -0 0 -0 -0 0 -0 
0 0.955 0 -0 0 -0 -0 0 -0 -0 0 -0 7.9349 20.046 -29.381 -0 0 -0 -0 0 -0 43.082 -43.188 39.341 -132.26 -47.172 -120.77 -0 0 -0 -0 0 -0 -2.7316 -34.161 -3.5519 -125.1 -67.981 -127.87 -0 0 -0 -0.25814 -23.965 0.29264 -0.25814 -23.965 0.29264 -0 0 -0 -0 0 -0 -0 0 -0 -0 0 -0 -0 0 -0 -0 0 -0 -0 0 -0 -0 0 -0 -0 0 -0 -0 0 -0 -0 0 -0 -0 0 -0 
